0
SECTION
2
HEADER
9
$ACADVER
1
AC1009
9
$EXTMIN
10
-0.083769
20
0.000000
30
0.0
9
$EXTMAX
10
0.075124
20
0.040073
30
0.0
0
ENDSEC
0
SECTION
2
ENTITIES
0
POLYLINE
8
NOZZLE
66
1
70
1
0
VERTEX
8
NOZZLE
10
-0.083769
20
0.040073
30
0.0
0
VERTEX
8
NOZZLE
10
-0.079317
20
0.040073
30
0.0
0
VERTEX
8
NOZZLE
10
-0.074864
20
0.040073
30
0.0
0
VERTEX
8
NOZZLE
10
-0.070412
20
0.040073
30
0.0
0
VERTEX
8
NOZZLE
10
-0.065959
20
0.040073
30
0.0
0
VERTEX
8
NOZZLE
10
-0.061507
20
0.040073
30
0.0
0
VERTEX
8
NOZZLE
10
-0.057054
20
0.040073
30
0.0
0
VERTEX
8
NOZZLE
10
-0.052602
20
0.040073
30
0.0
0
VERTEX
8
NOZZLE
10
-0.048149
20
0.040073
30
0.0
0
VERTEX
8
NOZZLE
10
-0.043697
20
0.040073
30
0.0
0
VERTEX
8
NOZZLE
10
-0.042038
20
0.038912
30
0.0
0
VERTEX
8
NOZZLE
10
-0.040380
20
0.037750
30
0.0
0
VERTEX
8
NOZZLE
10
-0.038722
20
0.036589
30
0.0
0
VERTEX
8
NOZZLE
10
-0.037064
20
0.035428
30
0.0
0
VERTEX
8
NOZZLE
10
-0.035405
20
0.034267
30
0.0
0
VERTEX
8
NOZZLE
10
-0.033747
20
0.033106
30
0.0
0
VERTEX
8
NOZZLE
10
-0.032089
20
0.031945
30
0.0
0
VERTEX
8
NOZZLE
10
-0.030430
20
0.030784
30
0.0
0
VERTEX
8
NOZZLE
10
-0.028772
20
0.029622
30
0.0
0
VERTEX
8
NOZZLE
10
-0.027114
20
0.028461
30
0.0
0
VERTEX
8
NOZZLE
10
-0.025456
20
0.027300
30
0.0
0
VERTEX
8
NOZZLE
10
-0.023797
20
0.026139
30
0.0
0
VERTEX
8
NOZZLE
10
-0.022139
20
0.024978
30
0.0
0
VERTEX
8
NOZZLE
10
-0.020481
20
0.023817
30
0.0
0
VERTEX
8
NOZZLE
10
-0.018823
20
0.022656
30
0.0
0
VERTEX
8
NOZZLE
10
-0.017164
20
0.021495
30
0.0
0
VERTEX
8
NOZZLE
10
-0.015506
20
0.020333
30
0.0
0
VERTEX
8
NOZZLE
10
-0.013848
20
0.019172
30
0.0
0
VERTEX
8
NOZZLE
10
-0.012190
20
0.018011
30
0.0
0
VERTEX
8
NOZZLE
10
-0.011915
20
0.017822
30
0.0
0
VERTEX
8
NOZZLE
10
-0.011638
20
0.017638
30
0.0
0
VERTEX
8
NOZZLE
10
-0.011358
20
0.017458
30
0.0
0
VERTEX
8
NOZZLE
10
-0.011076
20
0.017282
30
0.0
0
VERTEX
8
NOZZLE
10
-0.010790
20
0.017111
30
0.0
0
VERTEX
8
NOZZLE
10
-0.010502
20
0.016944
30
0.0
0
VERTEX
8
NOZZLE
10
-0.010211
20
0.016782
30
0.0
0
VERTEX
8
NOZZLE
10
-0.009918
20
0.016624
30
0.0
0
VERTEX
8
NOZZLE
10
-0.009623
20
0.016471
30
0.0
0
VERTEX
8
NOZZLE
10
-0.009325
20
0.016323
30
0.0
0
VERTEX
8
NOZZLE
10
-0.009024
20
0.016179
30
0.0
0
VERTEX
8
NOZZLE
10
-0.008722
20
0.016040
30
0.0
0
VERTEX
8
NOZZLE
10
-0.008417
20
0.015906
30
0.0
0
VERTEX
8
NOZZLE
10
-0.008111
20
0.015776
30
0.0
0
VERTEX
8
NOZZLE
10
-0.007802
20
0.015652
30
0.0
0
VERTEX
8
NOZZLE
10
-0.007491
20
0.015532
30
0.0
0
VERTEX
8
NOZZLE
10
-0.007179
20
0.015417
30
0.0
0
VERTEX
8
NOZZLE
10
-0.006865
20
0.015307
30
0.0
0
VERTEX
8
NOZZLE
10
-0.006549
20
0.015202
30
0.0
0
VERTEX
8
NOZZLE
10
-0.006232
20
0.015102
30
0.0
0
VERTEX
8
NOZZLE
10
-0.005913
20
0.015007
30
0.0
0
VERTEX
8
NOZZLE
10
-0.005592
20
0.014917
30
0.0
0
VERTEX
8
NOZZLE
10
-0.005270
20
0.014832
30
0.0
0
VERTEX
8
NOZZLE
10
-0.004947
20
0.014752
30
0.0
0
VERTEX
8
NOZZLE
10
-0.004623
20
0.014677
30
0.0
0
VERTEX
8
NOZZLE
10
-0.004297
20
0.014607
30
0.0
0
VERTEX
8
NOZZLE
10
-0.003971
20
0.014542
30
0.0
0
VERTEX
8
NOZZLE
10
-0.003643
20
0.014482
30
0.0
0
VERTEX
8
NOZZLE
10
-0.003315
20
0.014428
30
0.0
0
VERTEX
8
NOZZLE
10
-0.002986
20
0.014379
30
0.0
0
VERTEX
8
NOZZLE
10
-0.002656
20
0.014334
30
0.0
0
VERTEX
8
NOZZLE
10
-0.002325
20
0.014295
30
0.0
0
VERTEX
8
NOZZLE
10
-0.001994
20
0.014262
30
0.0
0
VERTEX
8
NOZZLE
10
-0.001663
20
0.014233
30
0.0
0
VERTEX
8
NOZZLE
10
-0.001331
20
0.014210
30
0.0
0
VERTEX
8
NOZZLE
10
-0.000998
20
0.014191
30
0.0
0
VERTEX
8
NOZZLE
10
-0.000666
20
0.014178
30
0.0
0
VERTEX
8
NOZZLE
10
-0.000333
20
0.014170
30
0.0
0
VERTEX
8
NOZZLE
10
-0.000000
20
0.014168
30
0.0
0
VERTEX
8
NOZZLE
10
0.000053
20
0.014168
30
0.0
0
VERTEX
8
NOZZLE
10
0.000107
20
0.014169
30
0.0
0
VERTEX
8
NOZZLE
10
0.000160
20
0.014170
30
0.0
0
VERTEX
8
NOZZLE
10
0.000213
20
0.014172
30
0.0
0
VERTEX
8
NOZZLE
10
0.000266
20
0.014174
30
0.0
0
VERTEX
8
NOZZLE
10
0.000320
20
0.014177
30
0.0
0
VERTEX
8
NOZZLE
10
0.000373
20
0.014181
30
0.0
0
VERTEX
8
NOZZLE
10
0.000426
20
0.014185
30
0.0
0
VERTEX
8
NOZZLE
10
0.000479
20
0.014189
30
0.0
0
VERTEX
8
NOZZLE
10
0.000532
20
0.014194
30
0.0
0
VERTEX
8
NOZZLE
10
0.000585
20
0.014200
30
0.0
0
VERTEX
8
NOZZLE
10
0.000638
20
0.014206
30
0.0
0
VERTEX
8
NOZZLE
10
0.000691
20
0.014212
30
0.0
0
VERTEX
8
NOZZLE
10
0.000744
20
0.014219
30
0.0
0
VERTEX
8
NOZZLE
10
0.000796
20
0.014227
30
0.0
0
VERTEX
8
NOZZLE
10
0.000849
20
0.014235
30
0.0
0
VERTEX
8
NOZZLE
10
0.000902
20
0.014243
30
0.0
0
VERTEX
8
NOZZLE
10
0.000954
20
0.014253
30
0.0
0
VERTEX
8
NOZZLE
10
0.001007
20
0.014262
30
0.0
0
VERTEX
8
NOZZLE
10
0.001059
20
0.014272
30
0.0
0
VERTEX
8
NOZZLE
10
0.001111
20
0.014283
30
0.0
0
VERTEX
8
NOZZLE
10
0.001163
20
0.014294
30
0.0
0
VERTEX
8
NOZZLE
10
0.001215
20
0.014306
30
0.0
0
VERTEX
8
NOZZLE
10
0.001267
20
0.014318
30
0.0
0
VERTEX
8
NOZZLE
10
0.001319
20
0.014331
30
0.0
0
VERTEX
8
NOZZLE
10
0.001370
20
0.014344
30
0.0
0
VERTEX
8
NOZZLE
10
0.001422
20
0.014358
30
0.0
0
VERTEX
8
NOZZLE
10
0.001473
20
0.014372
30
0.0
0
VERTEX
8
NOZZLE
10
0.001524
20
0.014387
30
0.0
0
VERTEX
8
NOZZLE
10
0.001575
20
0.014402
30
0.0
0
VERTEX
8
NOZZLE
10
0.001626
20
0.014418
30
0.0
0
VERTEX
8
NOZZLE
10
0.001677
20
0.014434
30
0.0
0
VERTEX
8
NOZZLE
10
0.001728
20
0.014451
30
0.0
0
VERTEX
8
NOZZLE
10
0.001778
20
0.014468
30
0.0
0
VERTEX
8
NOZZLE
10
0.001828
20
0.014486
30
0.0
0
VERTEX
8
NOZZLE
10
0.001878
20
0.014504
30
0.0
0
VERTEX
8
NOZZLE
10
0.001928
20
0.014523
30
0.0
0
VERTEX
8
NOZZLE
10
0.001978
20
0.014542
30
0.0
0
VERTEX
8
NOZZLE
10
0.002027
20
0.014562
30
0.0
0
VERTEX
8
NOZZLE
10
0.002737
20
0.014848
30
0.0
0
VERTEX
8
NOZZLE
10
0.003446
20
0.015134
30
0.0
0
VERTEX
8
NOZZLE
10
0.004153
20
0.015417
30
0.0
0
VERTEX
8
NOZZLE
10
0.004858
20
0.015700
30
0.0
0
VERTEX
8
NOZZLE
10
0.005561
20
0.015981
30
0.0
0
VERTEX
8
NOZZLE
10
0.006263
20
0.016261
30
0.0
0
VERTEX
8
NOZZLE
10
0.006963
20
0.016540
30
0.0
0
VERTEX
8
NOZZLE
10
0.007662
20
0.016817
30
0.0
0
VERTEX
8
NOZZLE
10
0.008359
20
0.017093
30
0.0
0
VERTEX
8
NOZZLE
10
0.009054
20
0.017367
30
0.0
0
VERTEX
8
NOZZLE
10
0.009748
20
0.017641
30
0.0
0
VERTEX
8
NOZZLE
10
0.010440
20
0.017912
30
0.0
0
VERTEX
8
NOZZLE
10
0.011131
20
0.018183
30
0.0
0
VERTEX
8
NOZZLE
10
0.011820
20
0.018452
30
0.0
0
VERTEX
8
NOZZLE
10
0.012507
20
0.018720
30
0.0
0
VERTEX
8
NOZZLE
10
0.013193
20
0.018987
30
0.0
0
VERTEX
8
NOZZLE
10
0.013877
20
0.019252
30
0.0
0
VERTEX
8
NOZZLE
10
0.014559
20
0.019516
30
0.0
0
VERTEX
8
NOZZLE
10
0.015240
20
0.019779
30
0.0
0
VERTEX
8
NOZZLE
10
0.015919
20
0.020040
30
0.0
0
VERTEX
8
NOZZLE
10
0.016596
20
0.020300
30
0.0
0
VERTEX
8
NOZZLE
10
0.017272
20
0.020558
30
0.0
0
VERTEX
8
NOZZLE
10
0.017947
20
0.020816
30
0.0
0
VERTEX
8
NOZZLE
10
0.018619
20
0.021072
30
0.0
0
VERTEX
8
NOZZLE
10
0.019290
20
0.021326
30
0.0
0
VERTEX
8
NOZZLE
10
0.019960
20
0.021580
30
0.0
0
VERTEX
8
NOZZLE
10
0.020628
20
0.021832
30
0.0
0
VERTEX
8
NOZZLE
10
0.021294
20
0.022082
30
0.0
0
VERTEX
8
NOZZLE
10
0.021958
20
0.022332
30
0.0
0
VERTEX
8
NOZZLE
10
0.022621
20
0.022580
30
0.0
0
VERTEX
8
NOZZLE
10
0.023283
20
0.022826
30
0.0
0
VERTEX
8
NOZZLE
10
0.023942
20
0.023072
30
0.0
0
VERTEX
8
NOZZLE
10
0.024600
20
0.023316
30
0.0
0
VERTEX
8
NOZZLE
10
0.025257
20
0.023558
30
0.0
0
VERTEX
8
NOZZLE
10
0.025912
20
0.023800
30
0.0
0
VERTEX
8
NOZZLE
10
0.026565
20
0.024040
30
0.0
0
VERTEX
8
NOZZLE
10
0.027216
20
0.024278
30
0.0
0
VERTEX
8
NOZZLE
10
0.027866
20
0.024516
30
0.0
0
VERTEX
8
NOZZLE
10
0.028515
20
0.024752
30
0.0
0
VERTEX
8
NOZZLE
10
0.029161
20
0.024986
30
0.0
0
VERTEX
8
NOZZLE
10
0.029806
20
0.025220
30
0.0
0
VERTEX
8
NOZZLE
10
0.030450
20
0.025452
30
0.0
0
VERTEX
8
NOZZLE
10
0.031092
20
0.025682
30
0.0
0
VERTEX
8
NOZZLE
10
0.031732
20
0.025912
30
0.0
0
VERTEX
8
NOZZLE
10
0.032371
20
0.026140
30
0.0
0
VERTEX
8
NOZZLE
10
0.033008
20
0.026367
30
0.0
0
VERTEX
8
NOZZLE
10
0.033643
20
0.026592
30
0.0
0
VERTEX
8
NOZZLE
10
0.034277
20
0.026816
30
0.0
0
VERTEX
8
NOZZLE
10
0.034909
20
0.027039
30
0.0
0
VERTEX
8
NOZZLE
10
0.035539
20
0.027260
30
0.0
0
VERTEX
8
NOZZLE
10
0.036168
20
0.027480
30
0.0
0
VERTEX
8
NOZZLE
10
0.036795
20
0.027699
30
0.0
0
VERTEX
8
NOZZLE
10
0.037421
20
0.027917
30
0.0
0
VERTEX
8
NOZZLE
10
0.038045
20
0.028133
30
0.0
0
VERTEX
8
NOZZLE
10
0.038667
20
0.028347
30
0.0
0
VERTEX
8
NOZZLE
10
0.039288
20
0.028561
30
0.0
0
VERTEX
8
NOZZLE
10
0.039907
20
0.028773
30
0.0
0
VERTEX
8
NOZZLE
10
0.040525
20
0.028984
30
0.0
0
VERTEX
8
NOZZLE
10
0.041141
20
0.029193
30
0.0
0
VERTEX
8
NOZZLE
10
0.041755
20
0.029401
30
0.0
0
VERTEX
8
NOZZLE
10
0.042367
20
0.029608
30
0.0
0
VERTEX
8
NOZZLE
10
0.042978
20
0.029814
30
0.0
0
VERTEX
8
NOZZLE
10
0.043588
20
0.030018
30
0.0
0
VERTEX
8
NOZZLE
10
0.044196
20
0.030221
30
0.0
0
VERTEX
8
NOZZLE
10
0.044802
20
0.030422
30
0.0
0
VERTEX
8
NOZZLE
10
0.045406
20
0.030622
30
0.0
0
VERTEX
8
NOZZLE
10
0.046009
20
0.030821
30
0.0
0
VERTEX
8
NOZZLE
10
0.046610
20
0.031019
30
0.0
0
VERTEX
8
NOZZLE
10
0.047210
20
0.031215
30
0.0
0
VERTEX
8
NOZZLE
10
0.047808
20
0.031410
30
0.0
0
VERTEX
8
NOZZLE
10
0.048404
20
0.031603
30
0.0
0
VERTEX
8
NOZZLE
10
0.048999
20
0.031795
30
0.0
0
VERTEX
8
NOZZLE
10
0.049592
20
0.031986
30
0.0
0
VERTEX
8
NOZZLE
10
0.050184
20
0.032176
30
0.0
0
VERTEX
8
NOZZLE
10
0.050774
20
0.032364
30
0.0
0
VERTEX
8
NOZZLE
10
0.051362
20
0.032551
30
0.0
0
VERTEX
8
NOZZLE
10
0.051949
20
0.032736
30
0.0
0
VERTEX
8
NOZZLE
10
0.052534
20
0.032921
30
0.0
0
VERTEX
8
NOZZLE
10
0.053117
20
0.033103
30
0.0
0
VERTEX
8
NOZZLE
10
0.053699
20
0.033285
30
0.0
0
VERTEX
8
NOZZLE
10
0.054279
20
0.033465
30
0.0
0
VERTEX
8
NOZZLE
10
0.054858
20
0.033644
30
0.0
0
VERTEX
8
NOZZLE
10
0.055435
20
0.033822
30
0.0
0
VERTEX
8
NOZZLE
10
0.056010
20
0.033998
30
0.0
0
VERTEX
8
NOZZLE
10
0.056584
20
0.034173
30
0.0
0
VERTEX
8
NOZZLE
10
0.057156
20
0.034346
30
0.0
0
VERTEX
8
NOZZLE
10
0.057726
20
0.034519
30
0.0
0
VERTEX
8
NOZZLE
10
0.058295
20
0.034690
30
0.0
0
VERTEX
8
NOZZLE
10
0.058862
20
0.034859
30
0.0
0
VERTEX
8
NOZZLE
10
0.059428
20
0.035028
30
0.0
0
VERTEX
8
NOZZLE
10
0.059992
20
0.035194
30
0.0
0
VERTEX
8
NOZZLE
10
0.060554
20
0.035360
30
0.0
0
VERTEX
8
NOZZLE
10
0.061115
20
0.035524
30
0.0
0
VERTEX
8
NOZZLE
10
0.061674
20
0.035687
30
0.0
0
VERTEX
8
NOZZLE
10
0.062231
20
0.035849
30
0.0
0
VERTEX
8
NOZZLE
10
0.062787
20
0.036009
30
0.0
0
VERTEX
8
NOZZLE
10
0.063341
20
0.036168
30
0.0
0
VERTEX
8
NOZZLE
10
0.063894
20
0.036326
30
0.0
0
VERTEX
8
NOZZLE
10
0.064445
20
0.036482
30
0.0
0
VERTEX
8
NOZZLE
10
0.064994
20
0.036637
30
0.0
0
VERTEX
8
NOZZLE
10
0.065542
20
0.036791
30
0.0
0
VERTEX
8
NOZZLE
10
0.066088
20
0.036943
30
0.0
0
VERTEX
8
NOZZLE
10
0.066633
20
0.037094
30
0.0
0
VERTEX
8
NOZZLE
10
0.067175
20
0.037244
30
0.0
0
VERTEX
8
NOZZLE
10
0.067717
20
0.037392
30
0.0
0
VERTEX
8
NOZZLE
10
0.068256
20
0.037539
30
0.0
0
VERTEX
8
NOZZLE
10
0.068794
20
0.037685
30
0.0
0
VERTEX
8
NOZZLE
10
0.069331
20
0.037829
30
0.0
0
VERTEX
8
NOZZLE
10
0.069865
20
0.037972
30
0.0
0
VERTEX
8
NOZZLE
10
0.070399
20
0.038114
30
0.0
0
VERTEX
8
NOZZLE
10
0.070930
20
0.038254
30
0.0
0
VERTEX
8
NOZZLE
10
0.071460
20
0.038393
30
0.0
0
VERTEX
8
NOZZLE
10
0.071988
20
0.038531
30
0.0
0
VERTEX
8
NOZZLE
10
0.072515
20
0.038667
30
0.0
0
VERTEX
8
NOZZLE
10
0.073040
20
0.038803
30
0.0
0
VERTEX
8
NOZZLE
10
0.073563
20
0.038936
30
0.0
0
VERTEX
8
NOZZLE
10
0.074085
20
0.039069
30
0.0
0
VERTEX
8
NOZZLE
10
0.074605
20
0.039200
30
0.0
0
VERTEX
8
NOZZLE
10
0.075124
20
0.039329
30
0.0
0
VERTEX
8
NOZZLE
10
0.075124
20
0.037363
30
0.0
0
VERTEX
8
NOZZLE
10
0.075124
20
0.035397
30
0.0
0
VERTEX
8
NOZZLE
10
0.075124
20
0.033430
30
0.0
0
VERTEX
8
NOZZLE
10
0.075124
20
0.031464
30
0.0
0
VERTEX
8
NOZZLE
10
0.075124
20
0.029497
30
0.0
0
VERTEX
8
NOZZLE
10
0.075124
20
0.027531
30
0.0
0
VERTEX
8
NOZZLE
10
0.075124
20
0.025564
30
0.0
0
VERTEX
8
NOZZLE
10
0.075124
20
0.023598
30
0.0
0
VERTEX
8
NOZZLE
10
0.075124
20
0.021631
30
0.0
0
VERTEX
8
NOZZLE
10
0.075124
20
0.019665
30
0.0
0
VERTEX
8
NOZZLE
10
0.075124
20
0.017698
30
0.0
0
VERTEX
8
NOZZLE
10
0.075124
20
0.015732
30
0.0
0
VERTEX
8
NOZZLE
10
0.075124
20
0.013765
30
0.0
0
VERTEX
8
NOZZLE
10
0.075124
20
0.011799
30
0.0
0
VERTEX
8
NOZZLE
10
0.075124
20
0.009832
30
0.0
0
VERTEX
8
NOZZLE
10
0.075124
20
0.007866
30
0.0
0
VERTEX
8
NOZZLE
10
0.075124
20
0.005899
30
0.0
0
VERTEX
8
NOZZLE
10
0.075124
20
0.003933
30
0.0
0
VERTEX
8
NOZZLE
10
0.075124
20
0.001966
30
0.0
0
VERTEX
8
NOZZLE
10
0.075124
20
0.000000
30
0.0
0
VERTEX
8
NOZZLE
10
0.073137
20
0.000000
30
0.0
0
VERTEX
8
NOZZLE
10
0.071151
20
0.000000
30
0.0
0
VERTEX
8
NOZZLE
10
0.069165
20
0.000000
30
0.0
0
VERTEX
8
NOZZLE
10
0.067179
20
0.000000
30
0.0
0
VERTEX
8
NOZZLE
10
0.065193
20
0.000000
30
0.0
0
VERTEX
8
NOZZLE
10
0.063207
20
0.000000
30
0.0
0
VERTEX
8
NOZZLE
10
0.061220
20
0.000000
30
0.0
0
VERTEX
8
NOZZLE
10
0.059234
20
0.000000
30
0.0
0
VERTEX
8
NOZZLE
10
0.057248
20
0.000000
30
0.0
0
VERTEX
8
NOZZLE
10
0.055262
20
0.000000
30
0.0
0
VERTEX
8
NOZZLE
10
0.053276
20
0.000000
30
0.0
0
VERTEX
8
NOZZLE
10
0.051290
20
0.000000
30
0.0
0
VERTEX
8
NOZZLE
10
0.049303
20
0.000000
30
0.0
0
VERTEX
8
NOZZLE
10
0.047317
20
0.000000
30
0.0
0
VERTEX
8
NOZZLE
10
0.045331
20
0.000000
30
0.0
0
VERTEX
8
NOZZLE
10
0.043345
20
0.000000
30
0.0
0
VERTEX
8
NOZZLE
10
0.041359
20
0.000000
30
0.0
0
VERTEX
8
NOZZLE
10
0.039373
20
0.000000
30
0.0
0
VERTEX
8
NOZZLE
10
0.037387
20
0.000000
30
0.0
0
VERTEX
8
NOZZLE
10
0.035400
20
0.000000
30
0.0
0
VERTEX
8
NOZZLE
10
0.033414
20
0.000000
30
0.0
0
VERTEX
8
NOZZLE
10
0.031428
20
0.000000
30
0.0
0
VERTEX
8
NOZZLE
10
0.029442
20
0.000000
30
0.0
0
VERTEX
8
NOZZLE
10
0.027456
20
0.000000
30
0.0
0
VERTEX
8
NOZZLE
10
0.025470
20
0.000000
30
0.0
0
VERTEX
8
NOZZLE
10
0.023483
20
0.000000
30
0.0
0
VERTEX
8
NOZZLE
10
0.021497
20
0.000000
30
0.0
0
VERTEX
8
NOZZLE
10
0.019511
20
0.000000
30
0.0
0
VERTEX
8
NOZZLE
10
0.017525
20
0.000000
30
0.0
0
VERTEX
8
NOZZLE
10
0.015539
20
0.000000
30
0.0
0
VERTEX
8
NOZZLE
10
0.013553
20
0.000000
30
0.0
0
VERTEX
8
NOZZLE
10
0.011566
20
0.000000
30
0.0
0
VERTEX
8
NOZZLE
10
0.009580
20
0.000000
30
0.0
0
VERTEX
8
NOZZLE
10
0.007594
20
0.000000
30
0.0
0
VERTEX
8
NOZZLE
10
0.005608
20
0.000000
30
0.0
0
VERTEX
8
NOZZLE
10
0.003622
20
0.000000
30
0.0
0
VERTEX
8
NOZZLE
10
0.001636
20
0.000000
30
0.0
0
VERTEX
8
NOZZLE
10
-0.000351
20
0.000000
30
0.0
0
VERTEX
8
NOZZLE
10
-0.002337
20
0.000000
30
0.0
0
VERTEX
8
NOZZLE
10
-0.004323
20
0.000000
30
0.0
0
VERTEX
8
NOZZLE
10
-0.006309
20
0.000000
30
0.0
0
VERTEX
8
NOZZLE
10
-0.008295
20
0.000000
30
0.0
0
VERTEX
8
NOZZLE
10
-0.010281
20
0.000000
30
0.0
0
VERTEX
8
NOZZLE
10
-0.012268
20
0.000000
30
0.0
0
VERTEX
8
NOZZLE
10
-0.014254
20
0.000000
30
0.0
0
VERTEX
8
NOZZLE
10
-0.016240
20
0.000000
30
0.0
0
VERTEX
8
NOZZLE
10
-0.018226
20
0.000000
30
0.0
0
VERTEX
8
NOZZLE
10
-0.020212
20
0.000000
30
0.0
0
VERTEX
8
NOZZLE
10
-0.022198
20
0.000000
30
0.0
0
VERTEX
8
NOZZLE
10
-0.024184
20
0.000000
30
0.0
0
VERTEX
8
NOZZLE
10
-0.026171
20
0.000000
30
0.0
0
VERTEX
8
NOZZLE
10
-0.028157
20
0.000000
30
0.0
0
VERTEX
8
NOZZLE
10
-0.030143
20
0.000000
30
0.0
0
VERTEX
8
NOZZLE
10
-0.032129
20
0.000000
30
0.0
0
VERTEX
8
NOZZLE
10
-0.034115
20
0.000000
30
0.0
0
VERTEX
8
NOZZLE
10
-0.036101
20
0.000000
30
0.0
0
VERTEX
8
NOZZLE
10
-0.038088
20
0.000000
30
0.0
0
VERTEX
8
NOZZLE
10
-0.040074
20
0.000000
30
0.0
0
VERTEX
8
NOZZLE
10
-0.042060
20
0.000000
30
0.0
0
VERTEX
8
NOZZLE
10
-0.044046
20
0.000000
30
0.0
0
VERTEX
8
NOZZLE
10
-0.046032
20
0.000000
30
0.0
0
VERTEX
8
NOZZLE
10
-0.048018
20
0.000000
30
0.0
0
VERTEX
8
NOZZLE
10
-0.050005
20
0.000000
30
0.0
0
VERTEX
8
NOZZLE
10
-0.051991
20
0.000000
30
0.0
0
VERTEX
8
NOZZLE
10
-0.053977
20
0.000000
30
0.0
0
VERTEX
8
NOZZLE
10
-0.055963
20
0.000000
30
0.0
0
VERTEX
8
NOZZLE
10
-0.057949
20
0.000000
30
0.0
0
VERTEX
8
NOZZLE
10
-0.059935
20
0.000000
30
0.0
0
VERTEX
8
NOZZLE
10
-0.061922
20
0.000000
30
0.0
0
VERTEX
8
NOZZLE
10
-0.063908
20
0.000000
30
0.0
0
VERTEX
8
NOZZLE
10
-0.065894
20
0.000000
30
0.0
0
VERTEX
8
NOZZLE
10
-0.067880
20
0.000000
30
0.0
0
VERTEX
8
NOZZLE
10
-0.069866
20
0.000000
30
0.0
0
VERTEX
8
NOZZLE
10
-0.071852
20
0.000000
30
0.0
0
VERTEX
8
NOZZLE
10
-0.073838
20
0.000000
30
0.0
0
VERTEX
8
NOZZLE
10
-0.075825
20
0.000000
30
0.0
0
VERTEX
8
NOZZLE
10
-0.077811
20
0.000000
30
0.0
0
VERTEX
8
NOZZLE
10
-0.079797
20
0.000000
30
0.0
0
VERTEX
8
NOZZLE
10
-0.081783
20
0.000000
30
0.0
0
VERTEX
8
NOZZLE
10
-0.083769
20
0.000000
30
0.0
0
VERTEX
8
NOZZLE
10
-0.083769
20
0.001908
30
0.0
0
VERTEX
8
NOZZLE
10
-0.083769
20
0.003816
30
0.0
0
VERTEX
8
NOZZLE
10
-0.083769
20
0.005725
30
0.0
0
VERTEX
8
NOZZLE
10
-0.083769
20
0.007633
30
0.0
0
VERTEX
8
NOZZLE
10
-0.083769
20
0.009541
30
0.0
0
VERTEX
8
NOZZLE
10
-0.083769
20
0.011449
30
0.0
0
VERTEX
8
NOZZLE
10
-0.083769
20
0.013358
30
0.0
0
VERTEX
8
NOZZLE
10
-0.083769
20
0.015266
30
0.0
0
VERTEX
8
NOZZLE
10
-0.083769
20
0.017174
30
0.0
0
VERTEX
8
NOZZLE
10
-0.083769
20
0.019082
30
0.0
0
VERTEX
8
NOZZLE
10
-0.083769
20
0.020990
30
0.0
0
VERTEX
8
NOZZLE
10
-0.083769
20
0.022899
30
0.0
0
VERTEX
8
NOZZLE
10
-0.083769
20
0.024807
30
0.0
0
VERTEX
8
NOZZLE
10
-0.083769
20
0.026715
30
0.0
0
VERTEX
8
NOZZLE
10
-0.083769
20
0.028623
30
0.0
0
VERTEX
8
NOZZLE
10
-0.083769
20
0.030532
30
0.0
0
VERTEX
8
NOZZLE
10
-0.083769
20
0.032440
30
0.0
0
VERTEX
8
NOZZLE
10
-0.083769
20
0.034348
30
0.0
0
VERTEX
8
NOZZLE
10
-0.083769
20
0.036256
30
0.0
0
VERTEX
8
NOZZLE
10
-0.083769
20
0.038164
30
0.0
0
SEQEND
8
NOZZLE
0
ENDSEC
0
EOF
